<svg xmlns="http://www.w3.org/2000/svg" xmlns:xlink="http://www.w3.org/1999/xlink" width="1333" zoomAndPan="magnify" viewBox="0 0 999.75 174.749997" height="233" preserveAspectRatio="xMidYMid meet" version="1.0"><defs><clipPath id="f00c0b1c78"><path d="M 0.589844 0 L 998.910156 0 L 998.910156 174.5 L 0.589844 174.5 Z M 0.589844 0 " clip-rule="nonzero"/></clipPath><clipPath id="198d4c332f"><path d="M 0.589844 30 L 998.160156 30 L 998.160156 174.5 L 0.589844 174.5 Z M 0.589844 30 " clip-rule="nonzero"/></clipPath></defs><g clip-path="url(#f00c0b1c78)"><path fill="#ffffff" d="M 0.589844 0 L 998.910156 0 L 998.910156 174.5 L 0.589844 174.5 Z M 0.589844 0 " fill-opacity="1" fill-rule="nonzero"/><path fill="#ffffff" d="M 0.589844 0 L 998.910156 0 L 998.910156 174.5 L 0.589844 174.5 Z M 0.589844 0 " fill-opacity="1" fill-rule="nonzero"/></g><g clip-path="url(#198d4c332f)"><path fill="#0097b2" d="M 569.191406 32.523438 C 568.988281 38.609375 567.792969 50.382812 567.394531 50.382812 C 567.292969 50.382812 566.996094 51.980469 566.796875 53.875 C 566.59375 55.769531 566.195312 58.464844 565.898438 59.859375 C 565.5 61.257812 565 64.25 564.699219 66.445312 C 563.703125 74.625 562.503906 78.417969 562.207031 74.226562 C 561.90625 71.035156 560.507812 81.910156 560.410156 87.496094 C 560.308594 90.390625 559.710938 94.679688 558.914062 96.972656 C 558.117188 99.367188 557.21875 105.253906 556.917969 110.242188 C 555.921875 126.105469 555.320312 129.699219 553.726562 129.699219 C 552.726562 129.699219 552.328125 130.894531 552.328125 133.488281 C 552.328125 135.585938 551.628906 138.179688 550.832031 139.277344 C 549.433594 140.972656 549.335938 140.671875 549.535156 134.6875 L 549.734375 128.203125 L 541.652344 127.902344 C 535.765625 127.703125 533.371094 127.203125 532.972656 126.207031 C 532.675781 125.410156 532.875 124.511719 533.371094 124.210938 C 533.871094 123.910156 533.871094 122.613281 533.171875 121.21875 C 532.375 119.324219 531.777344 119.023438 530.777344 119.820312 C 530.082031 120.421875 528.484375 120.621094 527.386719 120.21875 C 525.589844 119.621094 525.292969 118.921875 525.492188 115.929688 C 525.988281 110.34375 523.695312 104.855469 520.703125 104.15625 C 519.207031 103.757812 517.710938 102.261719 516.910156 100.464844 L 515.714844 97.574219 L 515.015625 100.167969 C 514.617188 101.960938 513.320312 103.261719 511.425781 103.859375 C 508.03125 105.054688 505.835938 109.84375 505.539062 116.828125 C 505.4375 119.722656 502.542969 121.515625 501.347656 119.523438 C 500.050781 117.425781 497.554688 121.71875 498.15625 124.910156 L 498.753906 127.703125 L 490.273438 127.703125 C 481.394531 127.703125 479.796875 128.203125 481.59375 130.398438 C 482.191406 131.09375 482.589844 131.695312 482.390625 131.792969 C 482.191406 131.792969 480.695312 132.09375 479.097656 132.292969 L 476.304688 132.792969 L 476.605469 124.3125 L 477.003906 115.730469 L 463.035156 110.144531 L 462.738281 104.15625 C 462.539062 100.265625 461.839844 97.574219 460.640625 96.277344 C 457.648438 92.984375 454.65625 86.597656 454.15625 82.308594 C 450.566406 55.070312 450.863281 55.371094 448.46875 75.324219 C 447.371094 85.402344 444.28125 93.683594 440.6875 96.574219 C 439.492188 97.574219 439.191406 99.367188 439.390625 105.054688 C 439.589844 110.542969 438.992188 114.433594 436.996094 121.417969 C 434.402344 130.296875 434.105469 130.695312 431.410156 130.695312 C 429.117188 130.695312 428.617188 130.296875 428.617188 128.203125 C 428.617188 125.90625 428.21875 125.808594 422.429688 125.507812 L 416.246094 125.207031 L 413.550781 116.726562 C 412.054688 111.839844 410.65625 108.847656 410.359375 109.746094 C 408.265625 115.132812 404.671875 128.800781 404.671875 131.496094 L 404.671875 134.6875 L 399.183594 134.6875 C 394.996094 134.6875 393.699219 134.984375 393.699219 136.183594 C 393.699219 136.980469 393.199219 137.679688 392.601562 137.679688 C 391.902344 137.679688 391.703125 135.085938 391.902344 130.195312 C 392.101562 125.109375 391.800781 122.714844 391.105469 122.714844 C 390.503906 122.714844 389.707031 121.21875 389.308594 119.421875 C 388.910156 117.625 388.308594 116.726562 387.910156 117.328125 C 387.210938 118.523438 376.136719 112.039062 374.542969 109.546875 C 374.042969 108.648438 373.742188 108.746094 373.742188 110.042969 C 373.742188 111.738281 373.046875 111.839844 366.660156 111.441406 C 362.070312 111.140625 359.277344 110.542969 358.679688 109.644531 C 357.980469 108.449219 357.78125 108.546875 357.78125 109.746094 C 357.78125 111.140625 355.886719 112.339844 347.605469 116.429688 C 345.507812 117.425781 343.714844 119.222656 343.316406 120.519531 C 343.015625 121.71875 342.417969 122.714844 342.019531 122.714844 C 341.519531 122.714844 341.320312 124.511719 341.519531 126.605469 L 341.816406 130.496094 L 338.226562 129.5 C 334.734375 128.601562 333.636719 128.699219 325.65625 130.796875 C 321.964844 131.792969 321.863281 131.792969 321.863281 136.683594 C 321.863281 140.773438 321.566406 141.671875 320.167969 141.671875 C 318.472656 141.671875 315.878906 137.679688 315.878906 134.984375 C 315.878906 134.289062 314.78125 133.6875 313.484375 133.6875 C 312.1875 133.6875 310.890625 132.992188 310.492188 132.191406 C 309.59375 129.898438 307.796875 130.398438 304.804688 133.886719 L 302.011719 137.179688 L 301.910156 113.535156 C 301.910156 90.886719 301.8125 89.792969 299.914062 88.792969 C 298.71875 88.195312 297.921875 86.699219 297.921875 85.203125 C 297.921875 83.804688 296.824219 81.710938 295.527344 80.511719 C 293.53125 78.617188 292.933594 76.621094 291.835938 67.34375 C 291.136719 61.257812 290.339844 57.464844 290.238281 58.863281 C 288.742188 72.832031 287.445312 78.417969 285.25 80.710938 C 283.953125 82.007812 282.957031 84.105469 282.957031 85.402344 C 282.957031 86.699219 282.058594 88.195312 280.960938 88.792969 C 279.0625 89.792969 278.964844 90.886719 278.964844 113.238281 C 278.964844 126.105469 278.566406 136.683594 278.066406 136.683594 C 277.566406 136.683594 276.171875 135.085938 274.875 133.191406 C 271.980469 129 270.785156 128.800781 268.390625 132.390625 C 267.492188 133.988281 265.796875 135.785156 264.796875 136.484375 C 263.800781 137.28125 263 138.976562 263 140.773438 C 263 142.367188 262.503906 143.664062 261.804688 143.664062 C 261.207031 143.664062 259.808594 144.363281 258.8125 145.363281 C 257.113281 146.859375 257.015625 146.859375 257.015625 144.066406 L 256.914062 141.171875 L 255.21875 143.964844 C 254.320312 145.460938 253.222656 146.660156 252.824219 146.660156 C 252.328125 146.660156 252.027344 141.769531 252.027344 135.785156 C 252.027344 129.5 251.628906 124.609375 251.03125 124.210938 C 250.53125 123.910156 250.03125 122.015625 250.03125 120.121094 C 250.03125 118.226562 249.332031 115.632812 248.535156 114.433594 C 247.738281 113.238281 246.839844 109.546875 246.441406 106.253906 C 245.441406 97.175781 244.34375 96.476562 243.546875 104.257812 C 243.148438 108.046875 241.949219 112.636719 240.953125 114.433594 C 239.957031 116.230469 239.058594 118.921875 239.058594 120.421875 C 238.65625 132.890625 237.761719 143.367188 236.863281 144.363281 C 236.265625 145.0625 234.269531 145.660156 232.472656 145.660156 C 229.777344 145.660156 229.082031 146.058594 229.082031 147.65625 C 229.082031 149.152344 228.382812 149.652344 226.585938 149.652344 C 224.988281 149.652344 224.09375 149.054688 224.09375 148.15625 C 224.09375 147.355469 223.292969 146.660156 222.195312 146.660156 C 220.300781 146.660156 219.105469 144.164062 219.105469 139.972656 C 219.105469 137.179688 217.109375 132.691406 215.8125 132.691406 C 215.3125 132.691406 213.617188 131.59375 211.921875 130.195312 C 208.230469 127.105469 207.03125 127.105469 203.339844 130.195312 C 200.746094 132.292969 199.449219 132.691406 193.5625 132.589844 C 186.777344 132.492188 184.285156 131.292969 184.183594 128.003906 C 184.183594 126.007812 180.992188 122.8125 179.695312 123.3125 C 178.996094 123.613281 177.5 122.714844 176.402344 121.316406 C 175.207031 119.722656 173.410156 118.722656 171.8125 118.722656 C 169.320312 118.722656 169.21875 118.425781 169.019531 112.9375 L 168.921875 107.25 L 168.320312 112.636719 C 167.722656 118.125 165.726562 120.21875 162.535156 119.023438 C 161.835938 118.722656 161.238281 119.023438 161.238281 119.621094 C 161.238281 120.320312 160.339844 121.71875 159.242188 122.914062 C 158.046875 124.3125 157.246094 124.609375 157.246094 123.8125 C 157.246094 121.617188 152.457031 127.003906 151.761719 129.996094 C 151.0625 132.589844 150.863281 132.691406 143.179688 132.691406 C 138.691406 132.691406 135.296875 132.292969 135.296875 131.695312 C 135.296875 131.195312 134.199219 129.996094 132.804688 129.101562 C 130.710938 127.703125 129.8125 127.703125 127.417969 128.699219 C 125.820312 129.300781 124.222656 130.496094 123.925781 131.292969 C 123.625 132.09375 122.726562 132.691406 122.03125 132.691406 C 120.53125 132.691406 118.339844 136.78125 118.339844 139.675781 C 118.339844 143.867188 117.339844 144.664062 111.753906 144.664062 L 106.367188 144.664062 L 106.367188 139.875 C 106.265625 134.1875 100.878906 109.644531 100.082031 111.738281 C 98.585938 115.730469 96.089844 131.195312 95.492188 139.675781 C 94.992188 147.558594 94.59375 149.152344 93.195312 149.453125 C 92.097656 149.652344 91.402344 149.152344 91.402344 148.253906 C 91.402344 147.058594 90.402344 146.660156 87.710938 146.660156 C 85.714844 146.660156 83.320312 145.960938 82.421875 145.164062 C 80.925781 143.867188 79.925781 143.964844 72.84375 146.058594 C 65.5625 148.15625 64.761719 148.652344 62.667969 152.445312 C 58.777344 159.429688 53.6875 157.933594 47.902344 148.054688 L 45.207031 143.566406 L 42.714844 147.855469 C 41.316406 150.25 39.421875 153.042969 38.523438 154.140625 C 37.527344 155.238281 37.027344 156.734375 37.328125 157.535156 C 37.824219 159.128906 36.828125 158.632812 32.039062 155.039062 L 29.046875 152.84375 L 24.355469 157.035156 C 20.664062 160.328125 18.269531 161.523438 13.582031 162.421875 C 9.789062 163.21875 7.59375 164.21875 7.59375 165.117188 C 7.59375 165.8125 6 167.011719 4.105469 167.609375 C 1.210938 168.609375 0.613281 169.207031 0.613281 171.699219 L 0.613281 174.59375 L 998.292969 174.59375 L 998.292969 163.621094 L 989.3125 163.621094 L 989.3125 159.726562 C 989.3125 156.035156 989.113281 155.835938 983.925781 153.644531 L 978.539062 151.546875 L 974.445312 153.542969 C 972.253906 154.738281 969.859375 155.636719 969.160156 155.636719 C 968.460938 155.636719 966.566406 153.542969 965.070312 151.046875 L 962.273438 146.460938 L 956.390625 147.15625 L 950.402344 147.855469 L 950.402344 138.976562 C 950.402344 130.097656 949.207031 125.90625 947.609375 128.5 C 947.011719 129.398438 946.414062 128.5 945.515625 125.707031 C 944.117188 121.019531 943.019531 121.21875 941.425781 126.304688 C 940.527344 128.898438 939.925781 129.597656 939.328125 128.601562 C 937.832031 126.105469 937.132812 128.601562 937.332031 136.28125 C 937.53125 141.871094 937.132812 144.464844 935.9375 146.359375 L 934.242188 148.855469 L 932.144531 146.859375 C 925.261719 140.671875 918.476562 140.175781 910.195312 145.261719 C 903.414062 149.453125 900.617188 149.253906 893.835938 144.066406 C 891.441406 142.269531 887.648438 140.273438 885.453125 139.675781 C 880.367188 138.277344 874.976562 140.574219 868.292969 147.058594 C 861.609375 153.441406 859.214844 153.34375 851.433594 146.160156 C 843.050781 138.378906 836.765625 135.386719 830.082031 135.882812 C 827.191406 136.183594 822.699219 137.480469 820.007812 138.878906 C 817.414062 140.175781 812.523438 142.769531 809.230469 144.464844 C 805.9375 146.160156 802.148438 147.855469 800.75 148.15625 L 798.257812 148.753906 L 798.554688 138.476562 C 798.65625 132.792969 798.457031 127.601562 797.957031 126.90625 C 797.359375 126.007812 793.566406 125.90625 781.996094 126.40625 L 766.828125 127.003906 L 766.828125 131.992188 C 766.828125 134.6875 766.332031 138.675781 765.632812 140.773438 C 764.636719 144.464844 764.234375 144.664062 760.644531 144.664062 C 757.050781 144.664062 756.851562 144.464844 756.851562 141.671875 C 756.851562 139.875 756.355469 138.675781 755.554688 138.675781 C 751.863281 138.675781 750.867188 136.28125 749.46875 122.8125 C 748.671875 115.53125 747.773438 109.34375 747.574219 109.144531 C 747.375 108.945312 746.179688 115.03125 744.882812 122.714844 C 742.488281 136.582031 742.488281 136.78125 739.195312 138.675781 C 736.800781 140.074219 735.902344 141.371094 735.902344 143.167969 C 735.902344 146.660156 732.410156 146.558594 730.613281 142.96875 C 728.71875 139.175781 727.621094 117.425781 729.21875 115.832031 C 730.117188 114.933594 729.914062 114.535156 728.21875 114.132812 C 725.824219 113.4375 725.125 109.746094 723.929688 89.792969 C 723.230469 78.917969 723.230469 78.71875 723.03125 86.300781 C 722.832031 98.671875 721.035156 113.035156 719.738281 113.835938 C 718.839844 114.433594 718.640625 117.226562 718.839844 122.8125 L 719.140625 130.894531 L 716.847656 128.800781 C 715.550781 127.703125 714.351562 126.707031 713.953125 126.707031 C 713.652344 126.707031 710.960938 129.199219 707.964844 132.191406 C 704.074219 136.082031 702.578125 138.378906 702.777344 139.972656 C 702.976562 141.472656 702.28125 142.46875 700.484375 143.367188 C 698.191406 144.363281 697.890625 144.265625 697.390625 141.871094 C 696.492188 138.476562 693.199219 133.6875 691.703125 133.6875 C 691.007812 133.6875 689.507812 135.1875 688.210938 137.082031 L 685.917969 140.472656 L 682.625 136.882812 C 680.730469 134.886719 678.933594 131.695312 678.535156 129.898438 C 677.9375 126.90625 677.738281 126.707031 676.539062 128.300781 C 675.839844 129.300781 675.441406 130.597656 675.640625 131.195312 C 675.941406 131.792969 674.742188 133.589844 673.046875 135.183594 C 671.453125 136.78125 670.054688 138.675781 670.054688 139.476562 C 670.054688 140.375 668.457031 139.476562 665.964844 137.179688 C 662.171875 133.789062 661.773438 133.589844 659.777344 135.085938 C 654.890625 138.675781 653.195312 139.175781 651.796875 137.28125 C 650.601562 135.585938 650.300781 135.683594 648.703125 138.179688 L 646.910156 140.972656 L 644.515625 138.078125 C 643.21875 136.484375 642.21875 135.585938 642.121094 136.082031 C 642.121094 136.484375 640.722656 134.289062 639.027344 131.09375 C 637.03125 127.402344 635.933594 124.011719 636.035156 121.917969 C 636.132812 119.820312 635.835938 118.824219 635.136719 119.222656 C 634.636719 119.523438 634.136719 120.917969 634.136719 122.316406 L 634.136719 124.710938 L 583.257812 124.710938 L 583.15625 118.921875 C 583.058594 109.644531 582.160156 100.367188 581.261719 99.269531 C 580.0625 97.773438 578.96875 89.492188 578.367188 76.324219 C 578.269531 73.328125 577.96875 72.730469 577.269531 73.828125 C 576.773438 74.625 576.273438 75.125 576.171875 74.824219 C 576.171875 74.527344 575.972656 73.429688 575.773438 72.332031 C 575.476562 71.234375 575.074219 68.539062 574.875 66.34375 C 574.578125 64.152344 574.078125 61.257812 573.679688 59.859375 C 573.378906 58.464844 572.980469 55.769531 572.78125 53.875 C 572.582031 51.980469 572.28125 50.382812 572.183594 50.382812 C 571.882812 50.382812 571.382812 46.492188 570.886719 39.007812 C 570.285156 32.125 569.390625 28.234375 569.191406 32.523438 Z M 569.191406 32.523438 " fill-opacity="1" fill-rule="nonzero"/></g></svg>